<svg width="48" height="45" viewBox="0 0 48 45" fill="none" xmlns="http://www.w3.org/2000/svg">
<path d="M25.7937 14.5194L12.5212 2.56635L41.205 12.4833C42.1365 12.8054 42.405 13.9831 41.6886 14.6041L34.114 21.1691C33.5593 21.65 33.5731 22.515 34.1437 23.0236L45.4592 33.11L20.5463 24.4041C19.6607 24.0946 19.3658 22.9986 19.9945 22.3532L25.8909 16.3009C26.3729 15.806 26.3291 15.0015 25.7937 14.5194Z" fill="#AAAAAA"/>
<path d="M12.366 32.0126L9.70559 13.2075L4.83008 44.9124L40.421 33.75L13.6439 33.1357C13.003 33.121 12.4546 32.639 12.366 32.0126Z" fill="#AAAAAA"/>
<path d="M27.9155 12.7472L11.5906 2.24722L41.8045 11.8751C42.7568 12.1786 43.0458 13.376 42.3187 14.0061L35.3446 20.051C34.8257 20.5009 34.7989 21.2957 35.2851 21.8182L46.1052 33.4482L23.1019 21.7001C22.3096 21.2955 22.1347 20.2571 22.7613 19.6777L28.1404 14.7031C28.7278 14.16 28.6171 13.1986 27.9155 12.7472Z" fill="url(#paint0_linear_344_87)"/>
<path d="M14.9835 30.2291L10.7369 5.625L6.01392 41.0138L40.4211 33.75L16.1554 31.3086C15.5678 31.2495 15.0824 30.8024 14.9835 30.2291Z" fill="url(#paint1_linear_344_87)"/>
<defs>
<linearGradient id="paint0_linear_344_87" x1="34.9377" y1="33.339" x2="7.0846" y2="8.50257" gradientUnits="userSpaceOnUse">
<stop offset="0.135417" stop-color="#242424"/>
<stop offset="1" stop-color="#242424" stop-opacity="0"/>
</linearGradient>
<linearGradient id="paint1_linear_344_87" x1="34.9378" y1="33.339" x2="7.08468" y2="8.50259" gradientUnits="userSpaceOnUse">
<stop offset="0.135417" stop-color="#242424"/>
<stop offset="1" stop-color="#242424" stop-opacity="0"/>
</linearGradient>
</defs>
</svg>
